<?xml version="1.0" ?><svg xmlns="http://www.w3.org/2000/svg" viewBox="0 0 48 48"><title/><g id="Icons"><path d="M30,30.987a1,1,0,0,0-1,1v.6A3.418,3.418,0,0,1,25.586,36H25a1,1,0,0,0,0,2h.586A5.421,5.421,0,0,0,31,32.586v-.6A1,1,0,0,0,30,30.987Z"/><path d="M40.136,17H6a1,1,0,0,0-1,1V30.112a5,5,0,0,0,.05,7.009L7.879,39.95c.019.019.042.031.061.05H6a3,3,0,0,0,0,6H34a3,3,0,0,0,0-6H31.367A9.4,9.4,0,0,0,34.9,33.906l3.853-1.926A11.25,11.25,0,0,0,45,21.865,4.87,4.87,0,0,0,40.136,17ZM35,23h3.879a5.3,5.3,0,0,1-2.814,3.613L35,27.146ZM14.4,36.565a15.981,15.981,0,0,0-3.99-2.488A13.944,13.944,0,0,1,6.433,31.5c.011-.012.019-.026.031-.039a3,3,0,0,1,4.243,0l2.829,2.829A2.981,2.981,0,0,1,14.4,36.565Zm-7.934-.858A2.985,2.985,0,0,1,5.6,33.43a15.971,15.971,0,0,0,3.954,2.457,13.961,13.961,0,0,1,4.013,2.608c-.012.013-.021.028-.033.041a3,3,0,0,1-4.243,0ZM34,42a1,1,0,0,1,0,2H6a1,1,0,0,1,0-2Zm-8.414-2h-10.7c.02-.019.043-.031.062-.05a5.006,5.006,0,0,0,0-7.071L12.121,30.05A4.991,4.991,0,0,0,7,28.866V19H33V32.586A7.423,7.423,0,0,1,25.586,40Zm12.268-9.809L35,31.618V29.382l1.96-.98A7.29,7.29,0,0,0,41,22.021,1,1,0,0,0,40,21H35V19h5.136A2.868,2.868,0,0,1,43,21.865,9.259,9.259,0,0,1,37.854,30.191Z"/><path d="M15,14a1,1,0,0,0,1-1v-.938a1.639,1.639,0,0,1,1.243-1.592A3.635,3.635,0,0,0,20,6.938V5a1,1,0,0,0-2,0V6.938A1.639,1.639,0,0,1,16.757,8.53,3.635,3.635,0,0,0,14,12.062V13A1,1,0,0,0,15,14Z"/><path d="M20.293,13.707a1,1,0,0,0,1.414,0l.427-.427A6.329,6.329,0,0,0,24,8.776V3a1,1,0,0,0-2,0V8.776a4.343,4.343,0,0,1-1.28,3.09l-.427.427A1,1,0,0,0,20.293,13.707Z"/><path d="M27,14a1,1,0,0,0,1-1V9a1,1,0,0,0-2,0v4A1,1,0,0,0,27,14Z"/></g></svg>